<svg id="Capa_1" enable-background="new 0 0 512 512" height="512" viewBox="0 0 512 512" width="512" xmlns="http://www.w3.org/2000/svg"><g><path d="m512 256-4.86 4.86c-139.46 139.46-364.9 141.58-506.96 4.77-.12-3.19-.18-6.41-.18-9.63 0-46.22 12.25-89.57 33.68-127 44.12-77.07 127.16-129 222.32-129s178.2 51.93 222.32 129c12.98 22.67 22.59 47.52 28.15 73.86 3.46 16.36 5.35 33.28 5.52 50.62.01.84.01 1.68.01 2.52z" fill="#92eaff"/><g><path d="m512 256c0 1.07-.01 2.15-.02 3.22l-63.59 39.91c-117.99 74.05-267.61 75.39-386.91 3.46l-61.3-36.96c-.12-3.2-.18-6.41-.18-9.63 0-46.51 12.41-90.13 34.09-127.72 26.3 46.29 66.62 83.59 115.2 106.1.98.46 1.96.91 2.95 1.35 31.68 14.2 66.79 22.15 103.75 22.27 36.91.12 72.02-7.58 103.77-21.54 1.55-.68 3.08-1.37 4.61-2.08 48.05-22.28 88.04-59.02 114.36-104.66 21.18 37.26 33.27 80.36 33.27 126.28z" fill="#63dbfa"/></g><g><g><path d="m511.98 259.22c-.8 65.22-26 124.56-66.87 169.33-46.66 51.1-113.74 83.22-188.32 83.45h-.79c-74.9 0-142.29-32.17-189.11-83.45-14.46-15.84-26.96-33.5-37.1-52.61-16.35-30.76-26.61-65.26-29.16-101.88-.2-2.79-.35-5.61-.45-8.43 56.39-5.49 109.85-15.07 156.41-28.04 11.7-3.26 24.57-6.93 39.19-6.5 11.22.33 20.74 3.04 29.54 5.63 10.23 3.02 20.45 6.03 30.68 9.05 3.37 1 6.75 1.99 10.12 2.99 8.79 2.59 20 3.75 31.02 2.92 11.01-.83 21.01-2.91 30.79-4.95 6.83-1.43 13.66-2.86 20.49-4.28 19.44-4.07 41.82 1.73 62.02 5.26 32.12 5.6 66.43 9.49 101.54 11.51z" fill="#6cdc2d"/><path d="m511.98 259.22c-.04 3.7-.17 7.39-.37 11.05-2.13 38.79-12.9 75.29-30.42 107.58-1.56 2.88-3.17 5.72-4.83 8.52-8.98 15.13-19.46 29.26-31.25 42.18-46.66 51.1-113.74 83.22-188.32 83.45h-.79v-266.23c3.37 1 6.75 1.99 10.12 2.99 8.79 2.59 20 3.75 31.02 2.92 11.01-.83 21.01-2.91 30.79-4.95 6.83-1.43 13.66-2.86 20.49-4.28 19.44-4.07 41.82 1.73 62.02 5.26 32.12 5.6 66.43 9.49 101.54 11.51z" fill="#53af17"/></g><g><path d="m74.866 329.512h-9.741l.521-16.324.642-20.053h7.415l.642 20.053z" fill="#ec771b"/><path d="m74.866 329.512h-4.684v-36.377h3.521l.642 20.053z" fill="#c55732"/><path d="m70.182 310.776v-17.641h-3.894l-.565 17.641z" fill="#c55732"/><path d="m74.268 310.776-.565-17.641h-3.521v17.641z" fill="#a44e3e"/><g><path d="m85.311 299.518c-4.19 4.124-9.66 6.186-15.129 6.186s-10.939-2.062-15.129-6.186c-6.775-6.668-8.056-16.696-3.844-24.635 5.859-11.041 11.051-22.413 15.86-33.935l3.113-7.46 3.114 7.46c4.808 11.522 10.001 22.894 15.859 33.935 4.213 7.938 2.932 17.967-3.844 24.635z" fill="#43af3e"/><path d="m85.311 299.518c-4.19 4.124-9.66 6.186-15.129 6.186-2.595 0-5.19-2.062-7.178-6.186-3.214-6.668-3.823-16.696-1.824-24.635 2.78-11.041 5.243-22.413 7.525-33.935l1.477-7.46 3.114 7.46c4.808 11.522 10.001 22.894 15.859 33.935 4.213 7.938 2.932 17.967-3.844 24.635z" fill="#00a23e"/><path d="m85.311 299.518c-4.19 4.124-9.66 6.186-15.129 6.186v-72.217l3.114 7.46c4.808 11.522 10.001 22.894 15.859 33.935 4.213 7.939 2.932 17.968-3.844 24.636z" fill="#008839"/></g></g><path d="m511.61 270.27c-2.13 38.79-12.9 75.29-30.42 107.58-1.56 2.88-3.17 5.72-4.83 8.52-8.98 15.13-19.46 29.26-31.25 42.18-46.66 51.1-113.74 83.22-188.32 83.45h-.79c-66.02 0-126.21-24.99-171.61-66.04-6.11-5.52-11.95-11.33-17.5-17.41-14.46-15.84-26.96-33.5-37.1-52.61-7.64-14.39-13.97-29.61-18.78-45.46-.23-.76-.46-1.53-.68-2.3l245.67-28.38z" fill="#daf985"/><g><path d="m124.569 355.855h-11.22l.6-18.803.739-23.099h8.542l.739 23.099z" fill="#ec771b"/><path d="m124.569 355.855h-5.395v-41.902h4.056l.739 23.099z" fill="#c55732"/><path d="m119.174 334.218v-20.265h-4.486l-.648 20.265z" fill="#c55732"/><path d="m123.878 334.218-.648-20.265h-4.056v20.265z" fill="#a44e3e"/><g><path d="m136.601 321.305c-4.826 4.751-11.126 7.126-17.427 7.126-6.299 0-12.6-2.375-17.427-7.126-7.804-7.68-9.279-19.232-4.427-28.377 6.749-12.718 12.73-25.817 18.268-39.088l3.586-8.593 3.587 8.593c5.538 13.272 11.519 26.371 18.268 39.088 4.852 9.145 3.377 20.696-4.428 28.377z" fill="#43af3e"/><path d="m136.601 321.305c-4.826 4.751-11.126 7.126-17.427 7.126-2.989 0-5.978-2.375-8.268-7.126-3.703-7.68-4.403-19.232-2.101-28.377 3.202-12.718 6.039-25.817 8.668-39.088l1.701-8.593 3.587 8.593c5.538 13.272 11.519 26.371 18.268 39.088 4.852 9.145 3.377 20.696-4.428 28.377z" fill="#00a23e"/><path d="m136.601 321.305c-4.826 4.751-11.126 7.126-17.427 7.126v-83.184l3.587 8.593c5.538 13.272 11.519 26.371 18.268 39.088 4.852 9.145 3.377 20.696-4.428 28.377z" fill="#008839"/></g></g><path d="m511.61 270.27c-2.13 38.79-12.9 75.29-30.42 107.58-1.56 2.88-3.17 5.72-4.83 8.52-8.98 15.13-19.46 29.26-31.25 42.18-46.66 51.1-113.74 83.22-188.32 83.45h-.79v-212.2z" fill="#b6e337"/><path d="m481.19 377.85c-1.56 2.88-3.17 5.72-4.83 8.52-8.98 15.13-19.46 29.26-31.25 42.18-46.66 51.1-113.74 83.22-188.32 83.45h-.79c-62.8 0-120.33-22.61-164.87-60.16-.21-.18-.42-.35-.62-.53-2.07-1.75-4.11-3.53-6.12-5.35-.18-.17-.37-.33-.55-.5-.01-.01-.01-.01-.02-.02-2.11-1.92-4.2-3.87-6.24-5.87-.14-.14-.28-.27-.42-.41-3.53-3.43-6.95-6.97-10.27-10.61-14.46-15.84-26.96-33.5-37.1-52.61-7.64-14.39-13.97-29.61-18.78-45.46l244.99 24.68z" fill="#6cdc2d"/><g><path d="m89.013 434.883-.804-25.138h-9.296l-.804 25.138-.161 5.039c1.924 1.876 3.888 3.712 5.873 5.518l.02.02c.18.17.37.33.55.5 1.684 1.525 3.394 1.368 5.12 2.843z" fill="#ec771b"/><path d="m89.013 434.883-.804-25.138h-4.414v35.671c.009.008.017.016.026.024l.02.02c.18.17.37.33.55.5 1.684 1.525 3.394 1.165 5.12 2.639z" fill="#c55732"/><path d="m83.794 432.146v-22.401h-4.882l-.716 22.401z" fill="#c55732"/><path d="m88.925 432.146-.717-22.401h-4.414v22.401z" fill="#a44e3e"/><g><path d="m102.76 417.746c-5.252 5.17-12.109 7.755-18.966 7.755-6.856 0-13.713-2.585-18.966-7.755-8.493-8.359-10.099-20.93-4.818-30.882 7.345-13.841 13.854-28.096 19.881-42.54l3.903-9.351 3.904 9.351c6.028 14.444 12.537 28.699 19.881 42.54 5.281 9.952 3.675 22.523-4.819 30.882z" fill="#43af3e"/><path d="m102.76 417.746c-5.252 5.17-12.109 7.755-18.966 7.755-3.253 0-6.506-2.585-8.998-7.755-4.03-8.359-4.792-20.93-2.286-30.882 3.485-13.841 6.573-28.096 9.433-42.54l1.851-9.351 3.904 9.351c6.028 14.444 12.537 28.699 19.881 42.54 5.281 9.952 3.675 22.523-4.819 30.882z" fill="#00a23e"/><path d="m102.76 417.746c-5.252 5.17-12.109 7.755-18.966 7.755v-90.529l3.904 9.351c6.028 14.444 12.537 28.699 19.881 42.54 5.281 9.953 3.675 22.524-4.819 30.883z" fill="#008839"/></g></g><path d="m481.19 377.85c-1.56 2.88-3.17 5.72-4.83 8.52-8.98 15.13-19.46 29.26-31.25 42.18-46.66 51.1-113.74 83.22-188.32 83.45h-.79v-156.84z" fill="#53af17"/><g><path d="m455.109 404.648h-16.713l.894-28.006 1.101-34.405h12.723l1.1 34.405z" fill="#ec771b"/><path d="m455.109 404.648h-8.037v-62.411h6.042l1.1 34.405z" fill="#c55732"/><path d="m447.072 371.65v-29.413h-6.681l-.941 29.413z" fill="#c55732"/><path d="m454.055 371.65-.941-29.413h-6.042v29.413z" fill="#a44e3e"/><g><path d="m473.029 353.187c-7.188 7.076-16.572 10.614-25.957 10.614-9.383 0-18.767-3.538-25.957-10.614-11.624-11.44-13.822-28.645-6.594-42.266 10.052-18.942 18.96-38.453 27.21-58.221l5.342-12.798 5.343 12.798c8.249 19.768 17.158 39.279 27.21 58.221 7.226 13.621 5.028 30.827-6.597 42.266z" fill="#43af3e"/><path d="m473.029 353.187c-7.188 7.076-16.572 10.614-25.957 10.614-4.452 0-8.904-3.538-12.315-10.614-5.515-11.44-6.558-28.645-3.129-42.266 4.769-18.942 8.995-38.453 12.911-58.221l2.533-12.798 5.343 12.798c8.249 19.768 17.158 39.279 27.21 58.221 7.227 13.621 5.029 30.827-6.596 42.266z" fill="#00a23e"/><path d="m473.029 353.187c-7.188 7.076-16.572 10.614-25.957 10.614v-123.899l5.343 12.798c8.249 19.768 17.158 39.279 27.21 58.221 7.227 13.621 5.029 30.827-6.596 42.266z" fill="#008839"/></g></g><g><path d="m394.142 409.39h-12.804l.685-21.456.844-26.356h9.746l.843 26.356z" fill="#ec771b"/><path d="m394.142 409.39h-6.157v-47.812h4.628l.843 26.356z" fill="#c55732"/><path d="m387.985 384.505v-22.927h-5.118l-.734 22.927z" fill="#c55732"/><path d="m393.347 384.505-.734-22.927h-4.628v22.927z" fill="#a44e3e"/><g><path d="m407.87 369.966c-5.507 5.421-12.696 8.131-19.885 8.131-7.188 0-14.377-2.71-19.885-8.131-8.905-8.764-10.589-21.945-5.052-32.38 7.701-14.512 14.525-29.458 20.845-44.602l4.092-9.805 4.093 9.805c6.32 15.144 13.145 30.091 20.845 44.602 5.537 10.436 3.853 23.616-5.053 32.38z" fill="#43af3e"/><path d="m407.87 369.966c-5.507 5.421-12.696 8.131-19.885 8.131-3.41 0-6.821-2.71-9.435-8.131-4.225-8.764-5.024-21.945-2.397-32.38 3.654-14.512 6.891-29.458 9.891-44.602l1.941-9.805 4.093 9.805c6.32 15.144 13.145 30.091 20.845 44.602 5.537 10.436 3.853 23.616-5.053 32.38z" fill="#00a23e"/><path d="m407.87 369.966c-5.507 5.421-12.696 8.131-19.885 8.131v-94.917l4.093 9.805c6.32 15.144 13.145 30.091 20.845 44.602 5.537 10.435 3.853 23.615-5.053 32.379z" fill="#008839"/></g></g><path d="m476.36 386.37c-8.98 15.13-19.46 29.26-31.25 42.18-46.66 51.1-113.74 83.22-188.32 83.45h-.79c-66.02 0-126.21-24.99-171.61-66.04z" fill="#b6e337"/><path d="m476.36 386.37c-8.98 15.13-19.46 29.26-31.25 42.18-46.66 51.1-113.74 83.22-188.32 83.45h-.79v-92.13z" fill="#6cdc2d"/><g fill="#fdd500"><path d="m276.055 374.285c0 3.203-2.596 5.799-5.799 5.799s-5.799-2.596-5.799-5.799 2.596-5.799 5.799-5.799c3.203.001 5.799 2.597 5.799 5.799z"/><circle cx="345.381" cy="470.48" r="5.799"/><path d="m389.604 414.521c0 3.203-2.596 5.799-5.799 5.799s-5.799-2.596-5.799-5.799 2.596-5.799 5.799-5.799 5.799 2.597 5.799 5.799z"/><circle cx="283.279" cy="489.295" r="5.799"/><circle cx="394.811" cy="443.62" r="5.799"/><path d="m441.872 421.24c0 3.203-2.596 5.799-5.799 5.799s-5.799-2.596-5.799-5.799 2.596-5.799 5.799-5.799 5.799 2.596 5.799 5.799z"/></g><path d="m211.61 376.529c0 3.203-2.596 5.799-5.799 5.799s-5.799-2.596-5.799-5.799 2.596-5.799 5.799-5.799 5.799 2.597 5.799 5.799z" fill="#ffe400"/><circle cx="118" cy="405.818" fill="#ffe400" r="5.799"/><circle cx="361.919" cy="387.342" fill="#fdd500" r="5.799"/><path d="m421.65 381.206c0 2.583-2.094 4.677-4.677 4.677s-4.677-2.094-4.677-4.677 2.094-4.677 4.677-4.677 4.677 2.094 4.677 4.677z" fill="#fdd500"/><circle cx="239.787" cy="400.019" fill="#ffe400" r="5.799"/><circle cx="142.051" cy="455.218" fill="#ffe400" r="5.799"/><circle cx="186.978" cy="471.136" fill="#ffe400" r="5.799"/><circle cx="118" cy="362.563" fill="#ffe400" r="5.799"/><path d="m37.71 368.362c0 3.203-2.596 5.799-5.799 5.799s-5.799-2.596-5.799-5.799 2.596-5.799 5.799-5.799 5.799 2.596 5.799 5.799z" fill="#ffe400"/><circle cx="311.407" cy="392.951" fill="#fdd500" r="7.068"/><ellipse cx="304.339" cy="438.174" fill="#fdd500" rx="8.493" ry="8.493" transform="matrix(.23 -.973 .973 .23 -192.037 633.7)"/><path d="m181.179 417.966c0 3.903-3.164 7.068-7.068 7.068-3.903 0-7.068-3.164-7.068-7.068 0-3.903 3.164-7.068 7.068-7.068 3.903 0 7.068 3.165 7.068 7.068z" fill="#ffe400"/><circle cx="227.033" cy="489.295" fill="#ffe400" r="7.068"/><path d="m234.101 451.384c0 3.903-3.164 7.068-7.068 7.068-3.903 0-7.068-3.164-7.068-7.068 0-3.903 3.164-7.068 7.068-7.068 3.904.001 7.068 3.165 7.068 7.068z" fill="#ffe400"/><path d="m170.509 382.328c0 3.903-3.164 7.068-7.068 7.068-3.903 0-7.068-3.164-7.068-7.068 0-3.903 3.164-7.068 7.068-7.068s7.068 3.165 7.068 7.068z" fill="#ffe400"/></g><g><path d="m40.363 204.984c0-.063-.005-.124-.005-.187 0-11.434 9.269-20.703 20.703-20.703 2.716 0 5.308.529 7.685 1.48 4.591-8.225 13.375-13.79 23.463-13.79 13.101 0 24.005 9.382 26.374 21.792.706-.101 1.428-.156 2.162-.156 7.123 0 13.091 4.931 14.686 11.564z" fill="#fff"/><path d="m60.563 204.984c0-.036-.003-.071-.003-.107 0-6.575 5.33-11.905 11.905-11.905 1.562 0 3.052.304 4.419.851 2.64-4.729 7.691-7.929 13.492-7.929 7.533 0 13.803 5.395 15.166 12.531.406-.058.821-.09 1.243-.09 4.096 0 7.527 2.835 8.445 6.65h-54.667z" fill="#dff7fd"/></g><g><path d="m280.452 194.943c0-.063-.005-.124-.005-.187 0-11.434 9.269-20.703 20.703-20.703 2.716 0 5.308.529 7.685 1.48 4.591-8.225 13.375-13.79 23.463-13.79 13.101 0 24.005 9.382 26.374 21.792.706-.101 1.428-.157 2.162-.157 7.123 0 13.09 4.931 14.686 11.564h-95.068z" fill="#fff"/><path d="m300.652 194.943c0-.036-.003-.071-.003-.107 0-6.575 5.33-11.905 11.905-11.905 1.562 0 3.052.304 4.419.851 2.64-4.729 7.691-7.929 13.492-7.929 7.533 0 13.803 5.395 15.166 12.531.406-.058.821-.09 1.243-.09 4.096 0 7.527 2.835 8.445 6.65h-54.667z" fill="#dff7fd"/></g><g><path d="m430.987 121.111c0-.063.005-.124.005-.187 0-11.434-9.269-20.703-20.703-20.703-2.716 0-5.308.529-7.685 1.48-4.591-8.225-13.375-13.79-23.463-13.79-13.101 0-24.004 9.382-26.374 21.792-.706-.101-1.428-.157-2.162-.157-7.123 0-13.09 4.931-14.686 11.564h95.068z" fill="#fff"/><path d="m410.787 121.111c0-.036.003-.071.003-.107 0-6.575-5.33-11.905-11.905-11.905-1.562 0-3.052.304-4.419.851-2.64-4.729-7.691-7.929-13.492-7.929-7.533 0-13.803 5.395-15.166 12.531-.406-.058-.821-.09-1.243-.09-4.096 0-7.527 2.835-8.445 6.65h54.667z" fill="#dff7fd"/></g><g><path d="m126.501 91.195c-.001-.084-.006-.167-.006-.251 0-15.354 12.447-27.8 27.8-27.8 3.648 0 7.128.71 10.319 1.987 6.165-11.044 17.96-18.517 31.507-18.517 17.592 0 32.234 12.598 35.416 29.263.949-.136 1.918-.21 2.904-.21 9.565 0 17.578 6.621 19.72 15.528z" fill="#fff"/><path d="m153.626 91.195c0-.048-.003-.096-.003-.144 0-8.829 7.157-15.986 15.986-15.986 2.097 0 4.099.408 5.934 1.143 3.545-6.351 10.328-10.648 18.117-10.648 10.116 0 18.535 7.244 20.365 16.827.546-.078 1.103-.121 1.67-.121 5.5 0 10.108 3.807 11.34 8.929z" fill="#dff7fd"/></g></g></svg>